<svg xmlns:dc="http://purl.org/dc/elements/1.1/" xmlns:cc="http://creativecommons.org/ns#" xmlns:rdf="http://www.w3.org/1999/02/22-rdf-syntax-ns#" xmlns:svg="http://www.w3.org/2000/svg" xmlns="http://www.w3.org/2000/svg" xmlns:sodipodi="http://sodipodi.sourceforge.net/DTD/sodipodi-0.dtd" xmlns:inkscape="http://www.inkscape.org/namespaces/inkscape" version="1.0" width="1282" height="721" viewBox="0 0 1025.6 576.8" preserveAspectRatio="xMidYMid meet" inkscape:version="0.48.5 r10040"><style>.style0{fill:	#000000;}.style1{fill:	#000000;stroke:	#000000;stroke-width:	0.86239445;}.style10{font-size:	30.54382896px;fill:	#d4aa00;font-family:	Trebuchet MS;-inkscape-font-specification:	Trebuchet MS Bold;}.style2{fill:	#000000;stroke:	#000000;stroke-width:	0.86457759;}.style3{fill:	#000000;stroke:	#000000;}.style4{font-size:	14px;line-height:	125%;letter-spacing:	0px;word-spacing:	0px;fill:	#ffffff;font-family:	Sans;}.style5{font-size:	32px;text-align:	center;text-anchor:	middle;font-family:	Liberation Mono;-inkscape-font-specification:	Liberation Mono;}.style6{font-size:	14px;line-height:	125%;letter-spacing:	0px;word-spacing:	0px;fill:	#000000;font-family:	Liberation Mono;-inkscape-font-specification:	Liberation Mono;}.style7{font-size:	14px;text-align:	center;line-height:	125%;letter-spacing:	0px;word-spacing:	0px;text-anchor:	middle;fill:	#ffffff;font-family:	Baekmuk Gulim;-inkscape-font-specification:	Baekmuk Gulim;}.style8{font-size:	24px;font-weight:	bold;font-family:	Trebuchet MS;-inkscape-font-specification:	Trebuchet MS Bold;}.style9{font-size:	15.27191448px;font-family:	Trebuchet MS;-inkscape-font-specification:	Trebuchet MS Bold;}</style><defs/><metadata>Created by potrace 1.11, written by Peter Selinger 2001-2013<rdf:RDF><cc:Work rdf:about=""><dc:format>image/svg+xml</dc:format><dc:type rdf:resource="http://purl.org/dc/dcmitype/StillImage"/><dc:title/></cc:Work></rdf:RDF></metadata><g transform="matrix(0.1,0,0,-0.1,224,432.00022)" class="style0"><path d="M 0 2160 0 0 l 2880 0 2880 0 0 2160 0 2160 -2880 0 -2880 0 0 -2160 z m 3270 1299 c 216 -75 281 -193 265 -482 -9 -173 -10 -241 0 -301 8 -46 7 -48 -14 -41 -27 8 -26 0 1 -56 16 -32 23 -62 23 -107 0 -55 -3 -66 -24 -83 -13 -10 -38 -19 -55 -19 -50 0 -136 29 -184 62 -36 25 -43 34 -37 52 3 11 10 49 14 84 7 61 19 81 49 82 6 0 12 7 12 15 0 18 -9 19 -44 5 -14 -5 -26 -6 -26 -2 -1 12 -40 55 -46 49 -3 -3 4 -34 16 -69 19 -54 20 -69 11 -104 -6 -23 -21 -54 -33 -69 -20 -26 -25 -27 -89 -23 -81 6 -209 64 -281 128 l -47 41 17 47 c 19 51 84 109 133 119 16 3 29 9 29 14 0 11 -69 -1 -102 -17 -37 -19 -87 -81 -104 -129 -25 -74 -13 -165 24 -180 21 -8 23 -3 10 38 -6 20 -9 40 -5 43 3 3 37 -14 74 -39 74 -49 159 -82 241 -93 53 -7 53 -7 25 -19 -15 -7 -37 -16 -48 -21 -19 -7 -19 -8 4 -12 30 -5 66 4 84 22 13 13 22 12 73 -9 33 -14 65 -25 73 -25 26 0 89 -43 95 -64 10 -38 6 -63 -15 -90 -29 -37 -95 -36 -169 4 -114 61 -142 71 -231 82 -117 14 -209 -1 -304 -47 -103 -51 -149 -98 -180 -187 -47 -136 25 -274 171 -327 32 -12 66 -24 74 -27 11 -4 7 -12 -17 -33 -18 -15 -33 -33 -33 -40 0 -22 -30 -71 -44 -71 -8 0 -20 17 -27 38 -7 20 -18 47 -26 59 -8 12 -14 23 -13 25 1 3 -7 28 -26 74 -9 25 -28 40 -86 68 -76 37 -148 91 -194 145 -14 17 -21 31 -15 31 15 0 14 13 -5 36 -8 10 -12 13 -8 5 4 -9 3 -12 -3 -8 -17 10 -23 46 -8 40 9 -3 13 3 11 21 -4 29 12 59 21 39 2 -7 9 -13 14 -13 6 0 8 4 5 9 -4 5 -2 11 4 13 6 2 11 18 13 36 2 35 33 55 48 31 6 -10 9 -8 9 8 0 12 -6 23 -12 26 -9 3 -8 10 6 26 11 11 14 21 8 21 -7 0 -12 5 -12 11 0 6 7 9 15 5 8 -3 15 -2 15 2 0 4 8 8 18 9 18 2 53 16 90 37 21 12 22 14 5 22 -10 4 -22 8 -28 9 -5 0 -16 4 -24 9 -9 6 -12 5 -7 -2 3 -6 -1 -18 -10 -26 -17 -18 -39 -22 -29 -6 3 6 4 10 1 10 -2 0 -13 3 -23 7 -16 6 -16 5 -4 -10 7 -9 9 -17 5 -17 -5 0 -15 9 -22 20 -11 19 -10 20 27 20 22 0 43 5 47 11 3 6 17 8 30 5 26 -7 31 3 12 22 -16 16 -2 28 15 13 11 -8 18 -7 31 8 13 14 14 21 5 27 -9 5 -8 10 3 18 27 20 48 74 48 125 0 27 5 62 11 78 6 15 10 63 10 106 -1 49 2 77 9 77 7 0 8 6 2 16 -5 9 -7 26 -4 37 3 13 1 18 -5 14 -6 -4 -14 1 -18 11 -6 15 -8 14 -16 -5 -9 -26 -26 -31 -26 -8 0 8 4 12 8 10 11 -8 22 26 24 75 1 25 3 56 4 70 0 14 13 39 27 55 18 21 22 31 12 33 -17 3 -12 78 6 85 8 3 11 -5 9 -27 -2 -17 0 -25 3 -18 8 18 32 15 37 -5 3 -11 5 -7 6 10 0 16 -3 26 -8 23 -5 -3 -11 0 -13 7 -8 22 7 52 27 55 11 2 21 7 23 12 2 4 13 6 25 3 18 -4 19 -3 7 6 -12 9 -10 11 12 11 15 0 30 5 33 10 4 6 16 8 28 6 12 -3 6 2 -13 11 l -35 18 45 3 c 31 2 40 6 30 13 -10 6 -11 9 -3 9 7 0 10 7 7 15 -4 10 0 15 12 16 60 2 88 9 97 24 14 26 226 16 317 -16 z M 2864 2245 c -15 -23 -15 -25 0 -25 9 0 16 -5 16 -11 0 -5 5 -7 12 -3 9 6 9 9 0 12 -7 2 -12 11 -12 19 0 11 7 14 26 9 15 -4 32 -2 40 5 10 8 14 8 14 0 0 -6 5 -11 11 -11 5 0 7 5 4 10 -4 6 9 10 32 9 21 0 32 -3 24 -6 -21 -8 43 -33 68 -26 16 4 21 1 21 -13 0 -15 2 -16 9 -5 6 10 10 10 16 1 4 -6 19 -16 33 -21 16 -6 22 -13 15 -17 -7 -5 -7 -11 3 -20 9 -9 14 -9 14 -2 0 13 81 4 90 -10 3 -3 19 -6 35 -6 30 1 30 0 29 -50 -2 -59 -21 -127 -35 -119 -5 4 -9 -20 -9 -55 0 -70 -14 -99 -44 -93 -16 4 -17 2 -7 -5 18 -13 0 -23 -52 -28 -23 -2 -57 -6 -74 -9 -20 -4 -33 -2 -33 5 0 5 16 10 35 10 19 0 35 5 35 10 0 6 -18 10 -40 10 -27 0 -39 -4 -38 -12 3 -15 -78 -13 -115 2 -15 6 -7 7 26 3 32 -4 47 -2 47 6 0 6 -18 11 -44 11 -24 0 -52 3 -62 7 -14 5 -11 9 17 19 l 34 13 -37 -2 c -43 -1 -60 10 -35 24 23 14 22 33 -3 26 -11 -3 -23 -1 -26 4 -8 13 -42 11 -47 -3 -2 -7 -7 -10 -11 -7 -3 3 4 16 16 28 39 43 21 151 -26 151 -9 0 -16 -4 -16 -10 0 -16 -37 -11 -44 6 -3 8 -2 24 4 34 5 10 8 36 6 59 -2 26 2 45 10 52 8 6 14 17 14 25 0 7 12 15 28 17 15 2 30 5 35 6 4 0 0 -10 -9 -24 z m -674 -82 c -24 -9 -30 -26 -23 -63 16 -90 159 -230 300 -295 29 -13 53 -27 53 -31 0 -9 -47 -72 -74 -100 -19 -18 -79 -91 -99 -118 -5 -7 -17 1 -35 24 -88 113 -226 208 -318 217 -60 6 -76 25 -79 92 -3 55 5 69 75 139 76 75 168 142 194 141 14 0 16 -2 6 -6 z m 1230 -18 c 0 -8 4 -15 9 -15 5 0 13 -9 16 -20 4 -11 17 -28 31 -36 22 -15 34 -14 175 21 83 20 152 35 153 33 2 -1 -4 -43 -12 -93 -8 -49 -15 -108 -16 -130 l -1 -40 137 -55 c 157 -63 155 -58 56 -140 -35 -29 -64 -55 -66 -59 -3 -10 44 -78 98 -141 52 -60 71 -91 63 -103 -7 -12 -118 -61 -175 -77 -58 -17 -61 -35 -21 -107 45 -81 52 -96 47 -104 -7 -11 -137 -39 -184 -39 -50 0 -58 -16 -37 -69 9 -21 13 -41 10 -45 -4 -3 -30 -6 -59 -6 -50 0 -52 1 -66 37 -15 36 -15 36 21 73 41 42 48 77 26 119 -17 33 -33 41 -85 41 -28 0 -46 -8 -69 -29 -28 -26 -40 -51 -25 -51 4 0 22 14 41 30 19 17 45 30 60 30 60 0 83 -66 39 -116 -21 -25 -31 -28 -97 -31 -81 -3 -119 -17 -119 -43 0 -35 -38 -66 -102 -85 -35 -10 -67 -22 -72 -27 -17 -14 -40 -9 -104 22 -34 17 -65 30 -67 30 -3 0 -26 13 -52 29 -51 32 -49 36 26 44 25 3 82 24 127 46 45 23 87 41 93 41 16 0 13 21 -6 42 -21 24 -31 23 -35 -4 -5 -35 -134 -97 -218 -104 -77 -7 -116 8 -197 77 -97 82 -116 103 -102 108 8 2 17 9 21 15 5 7 17 7 41 -2 40 -15 117 -16 117 -2 0 6 -17 10 -37 10 -47 0 -100 32 -109 64 -4 16 1 36 13 56 18 32 19 32 73 25 30 -4 73 -8 96 -9 24 0 48 -8 58 -18 10 -10 27 -18 39 -18 19 0 18 3 -12 34 l -33 34 23 14 c 16 9 61 13 139 13 99 -1 121 -4 162 -24 68 -33 78 -49 49 -72 -13 -11 -36 -19 -53 -19 -43 0 -121 -21 -138 -36 -12 -12 -12 -14 2 -14 8 0 35 7 58 15 23 8 66 15 94 15 46 0 52 3 64 28 7 15 29 35 52 45 22 10 40 25 40 33 0 11 -4 12 -19 4 -31 -16 -41 -12 -32 13 12 34 -2 133 -24 156 -37 42 -48 18 -14 -30 15 -21 20 -44 20 -85 0 -31 -2 -58 -5 -62 -3 -3 -29 5 -56 18 -48 23 -50 25 -44 57 8 40 -11 45 -28 7 -12 -25 -13 -26 -92 -19 -89 8 -101 14 -110 51 -4 14 -12 23 -19 21 -13 -4 -14 -20 -3 -53 5 -18 2 -22 -25 -28 -44 -9 -51 0 -33 42 20 49 79 110 129 133 l 40 19 -35 -4 c -19 -2 -49 -9 -66 -17 -28 -11 -34 -10 -49 4 -18 18 -55 23 -55 8 0 -5 9 -12 19 -16 32 -10 33 -36 4 -94 -15 -31 -30 -58 -31 -61 -2 -3 -14 7 -26 23 -12 15 -28 27 -35 27 -8 0 -11 6 -7 16 4 11 1 14 -12 12 -11 -2 -18 -14 -20 -36 -3 -26 -7 -32 -28 -32 -24 0 -28 7 -24 49 3 40 -24 18 -33 -27 -9 -47 -27 -57 -27 -14 2 73 49 140 109 152 13 3 26 11 29 19 4 11 -3 13 -30 8 l -35 -5 28 28 c 27 27 34 28 130 32 86 2 103 6 117 23 14 17 30 20 102 22 47 1 102 6 122 11 52 13 97 49 103 80 5 26 22 85 46 166 7 23 9 63 5 97 -3 36 -2 59 4 59 6 0 10 -7 10 -15 z M 2017 1767 c 93 -24 202 -102 264 -189 l 20 -28 -25 -10 c -43 -16 -31 -30 20 -23 45 6 46 6 102 -53 31 -33 87 -104 124 -159 94 -139 153 -198 293 -290 33 -22 65 -44 71 -50 6 -5 59 -35 118 -65 l 108 -55 -64 -3 c -96 -5 -231 23 -313 65 -157 80 -339 221 -332 256 1 7 -13 13 -33 15 -39 4 -68 25 -81 60 -8 22 -23 30 -84 49 -56 16 -36 41 47 58 25 5 26 6 12 33 -7 16 -25 35 -39 42 -14 7 -25 19 -25 26 0 22 47 28 75 10 31 -21 56 -21 48 -1 -14 39 -115 54 -142 21 -17 -20 0 -61 32 -80 l 32 -19 -42 -14 c -41 -14 -43 -17 -43 -53 0 -33 4 -39 28 -46 30 -9 41 -11 59 -13 7 0 23 -21 34 -47 25 -52 25 -52 -61 -111 -137 -93 -256 -127 -432 -121 -130 4 -128 3 -165 127 -26 84 -31 232 -12 321 6 29 12 57 13 63 10 44 56 139 91 187 69 95 177 129 302 97 z m 533 -37 c 0 -6 20 -59 44 -118 61 -146 62 -152 37 -152 -26 0 -27 -15 -1 -37 31 -27 25 -43 -17 -43 -28 0 -34 -3 -23 -10 8 -5 26 -10 40 -10 23 0 26 -4 26 -42 1 -24 3 -51 5 -62 2 -10 -4 -23 -14 -30 -16 -9 -24 -5 -53 29 -19 22 -61 79 -94 127 -33 47 -78 102 -100 121 -22 19 -40 37 -40 40 0 5 16 24 116 142 19 21 34 43 34 47 0 4 9 8 20 8 11 0 20 -5 20 -10 z m -988 -422 c -5 -115 9 -195 49 -274 31 -64 57 -84 109 -84 37 0 46 -10 123 -135 100 -163 279 -319 490 -428 l 68 -35 -53 -6 c -30 -4 -87 -16 -128 -26 -247 -65 -392 -91 -635 -115 -222 -21 -355 -19 -339 6 3 5 -2 9 -11 9 -10 0 -13 -5 -9 -11 5 -9 -7 -10 -42 -5 -81 11 -194 38 -194 47 0 5 -9 9 -21 9 -12 0 -34 14 -50 31 -33 36 -33 60 4 184 27 94 124 335 142 355 8 9 15 20 15 24 0 11 89 156 112 182 10 11 18 23 18 27 0 32 317 337 349 337 4 0 5 -42 3 -92 z m 816 -177 c 12 -11 22 -22 22 -26 0 -4 8 -15 19 -24 104 -90 166 -135 200 -146 12 -3 21 -10 21 -14 0 -15 135 -70 210 -86 41 -9 130 -19 198 -22 116 -6 124 -5 142 15 11 12 51 30 90 42 71 21 113 57 122 105 4 26 42 31 74 11 20 -14 24 -25 24 -64 0 -26 -9 -66 -19 -89 -11 -23 -17 -44 -13 -47 9 -10 92 -7 113 5 11 6 29 19 40 30 42 42 98 1 84 -62 -17 -77 -63 -119 -147 -134 -52 -10 -50 -29 2 -21 48 7 111 36 125 55 6 8 18 28 27 44 l 16 29 22 -22 c 46 -46 0 -137 -100 -197 -30 -18 -65 -33 -78 -33 -14 0 -21 -4 -16 -11 9 -15 70 -2 122 26 24 14 41 19 38 12 -3 -7 -9 -19 -12 -27 -10 -28 -93 -85 -155 -107 -84 -30 -169 -42 -264 -37 -55 2 -115 -3 -190 -17 -156 -30 -395 -23 -540 15 -104 28 -225 81 -260 113 -11 11 -44 32 -72 49 -29 16 -53 35 -53 42 0 6 -5 12 -11 12 -16 0 -38 31 -39 53 0 10 -5 15 -10 12 -6 -4 -8 -11 -5 -16 4 -5 1 -9 -5 -9 -8 0 -10 9 -6 25 7 26 -3 32 -21 14 -8 -8 -11 -7 -10 2 1 41 -4 55 -24 56 -12 1 -31 10 -42 20 -11 10 -17 12 -12 4 5 -10 4 -12 -3 -7 -17 10 -15 26 4 26 9 0 13 5 10 13 -3 6 -9 20 -12 30 -7 18 -44 24 -44 6 0 -6 -5 -9 -11 -7 -6 2 -10 7 -9 11 0 4 -6 15 -15 23 -19 20 -19 34 0 34 18 0 20 40 3 41 -7 0 -4 4 7 9 19 8 19 9 -3 9 -16 1 -26 -6 -29 -19 -6 -21 -18 -26 -27 -11 -10 15 31 51 60 52 28 2 27 2 -6 9 l -35 7 36 2 c 109 4 305 96 388 183 31 32 48 34 79 9 z M 3807 918 c 58 -60 108 -137 143 -218 50 -118 21 -291 -64 -376 -36 -36 -45 -41 -75 -36 l -34 5 26 19 c 42 30 97 113 97 144 l 0 29 -21 -35 c -30 -50 -67 -92 -98 -112 -38 -26 -122 -24 -146 2 -18 19 -16 21 48 82 53 51 67 71 72 103 4 22 16 59 27 83 26 56 18 104 -22 134 -20 15 -30 30 -30 48 0 39 -31 70 -69 70 -18 0 -38 6 -45 13 -12 10 -2 14 52 22 62 10 67 12 66 35 -1 14 -5 33 -9 44 -13 30 22 6 82 -56 z" inkscape:connector-curvature="0"/></g><path d="m 0.4 0.4 223.6 0 0 575.9 -223.6 0 z" class="style1"/><path d="m 799.7 0.4 224.7 0 0 575.9 -224.7 0 z" class="style2"/><path d="m177.2 425.3 706.1 0 0 151.5 -706.1 0 z" class="style3"/><g class="style4"><path d="m321.5 444.6 0 7.3 -2.3 0 0 -7.3 -6.1 -9.6 2.6 0 4.6 7.6 4.6 -7.6 2.6 0 -6.1 9.6 " class="style5"/><path d="m341.8 445.2 c-0 2.2 -0.6 4 -1.6 5.2 -1 1.2 -2.6 1.8 -4.6 1.8 -1.9 0 -3.4 -0.6 -4.5 -1.8 -1 -1.2 -1.5 -3 -1.5 -5.2 0 -2.3 0.6 -4.1 1.6 -5.2 1 -1.2 2.6 -1.8 4.5 -1.8 2 0 3.5 0.6 4.6 1.8 1 1.1 1.5 2.9 1.5 5.3 m-2.4 0 c-0 -1.8 -0.3 -3.1 -0.9 -4 -0.6 -0.9 -1.5 -1.4 -2.8 -1.4 -1.3 0 -2.2 0.5 -2.8 1.4 -0.6 0.9 -0.9 2.2 -0.9 4 0 1.8 0.3 3.1 0.9 4 0.6 0.9 1.5 1.4 2.7 1.4 1.4 0 2.3 -0.5 2.9 -1.4 0.6 -0.9 0.9 -2.2 0.9 -4 " class="style5"/><path d="m347.9 438.4 0 8.6 c0 1.3 0.2 2.2 0.6 2.7 0.4 0.5 1.1 0.7 2.2 0.7 1 0 1.9 -0.4 2.6 -1.1 0.6 -0.7 1 -1.8 1 -3.1 l0 -7.8 2.2 0 0 10.6 c-0 1.6 0 2.6 0.1 2.9 l-2.2 0 c-0 -0.1 -0 -0.2 -0 -0.3 -0 -0.2 -0 -0.4 -0 -0.6 -0 -0.2 -0 -0.7 -0 -1.4 l-0 0 c-0.5 1 -1.1 1.6 -1.8 2 -0.6 0.4 -1.5 0.6 -2.6 0.6 -1.5 0 -2.6 -0.4 -3.3 -1.1 -0.7 -0.7 -1 -2 -1 -3.7 l0 -9 2.2 0 " class="style5"/><path d="m371.8 440.5 c-1 -0.2 -1.8 -0.2 -2.6 -0.2 -1.4 0 -2.4 0.5 -3.3 1.5 -0.8 1 -1.2 2.3 -1.2 3.8 l0 6.3 -2.2 0 0 -8.8 c0 -0.6 -0.1 -1.4 -0.2 -2.2 -0.1 -0.9 -0.2 -1.7 -0.5 -2.6 l2.2 0 c0.3 1.1 0.6 2.2 0.6 3.1 l0.1 0 c0.4 -1 0.8 -1.6 1.2 -2.1 0.4 -0.5 0.9 -0.8 1.4 -1 0.6 -0.2 1.2 -0.3 2 -0.3 0.9 0 1.8 0.1 2.6 0.2 l0 2.1 " class="style5"/><path d="m403 445.1 c-0 4.7 -1.6 7 -4.9 7 -2.1 0 -3.4 -0.8 -4.2 -2.3 l-0.1 0 c0 0.1 0.1 0.7 0.1 2.1 l0 5.3 -2.2 0 0 -16 c0 -1.4 -0 -2.3 -0.1 -2.8 l2.2 0 c0 0 0 0.2 0 0.4 0 0.2 0 0.6 0.1 1 0 0.4 0 0.7 0 0.9 l0.1 0 c0.4 -0.9 1 -1.5 1.6 -1.9 0.6 -0.4 1.5 -0.6 2.6 -0.6 1.7 0 2.9 0.6 3.7 1.7 0.8 1.1 1.2 2.9 1.2 5.3 m-2.3 0 c-0 -1.9 -0.2 -3.2 -0.8 -4 -0.5 -0.8 -1.3 -1.2 -2.4 -1.2 -1.3 0 -2.2 0.5 -2.7 1.4 -0.6 0.9 -0.8 2.3 -0.8 4.2 -0 1.8 0.2 3 0.8 3.9 0.6 0.8 1.4 1.2 2.7 1.2 1.1 0 1.9 -0.4 2.4 -1.3 0.5 -0.9 0.8 -2.2 0.8 -4.2 " class="style5"/><path d="m418.6 450.6 c0.2 0 0.5 -0 0.7 -0.1 l0 1.4 c-0.6 0.2 -1.1 0.2 -1.8 0.2 -0.8 0 -1.4 -0.2 -1.8 -0.6 -0.4 -0.5 -0.6 -1.1 -0.6 -2.1 l-0.1 0 c-0.6 1 -1.2 1.8 -1.9 2.2 -0.7 0.5 -1.7 0.6 -2.7 0.6 -1.3 0 -2.3 -0.3 -3 -1 -0.6 -0.7 -1 -1.7 -1 -3 0 -2.9 1.9 -4.4 5.7 -4.4 l3 -0.1 0 -0.7 c-0 -1.1 -0.2 -1.8 -0.6 -2.3 -0.5 -0.5 -1.1 -0.7 -2.1 -0.7 -1 0 -1.7 0.2 -2.2 0.6 -0.4 0.3 -0.7 0.9 -0.8 1.6 l-2.3 -0.2 c0.4 -2.4 2.2 -3.7 5.3 -3.7 1.7 0 2.9 0.4 3.8 1.2 0.9 0.8 1.3 1.9 1.3 3.4 l0 5.8 c-0 0.6 0.1 1.2 0.2 1.5 0.2 0.3 0.5 0.5 1 0.5 m-7.6 -0.1 c0.8 0 1.5 -0.2 2.2 -0.6 0.6 -0.4 1.1 -0.9 1.4 -1.5 0.3 -0.6 0.5 -1.3 0.5 -2 l0 -1.1 -2.4 0.1 c-1 0 -1.8 0.2 -2.2 0.3 -0.5 0.2 -1 0.5 -1.2 1 -0.3 0.4 -0.4 1 -0.4 1.6 0 0.7 0.2 1.2 0.6 1.7 0.4 0.4 1 0.6 1.6 0.6 " class="style5"/><path d="m427.8 457.3 c-1.4 0 -2.6 -0.3 -3.4 -0.9 -0.9 -0.6 -1.4 -1.4 -1.6 -2.5 l2.3 -0.3 c0.2 0.6 0.5 1.1 0.9 1.4 0.5 0.3 1.1 0.5 1.8 0.5 2.1 0 3.1 -1.3 3.1 -3.9 l0 -2.4 -0 0 c-0.4 0.9 -1 1.5 -1.7 1.9 -0.7 0.5 -1.6 0.6 -2.6 0.6 -1.7 0 -2.9 -0.6 -3.6 -1.6 -0.7 -1.1 -1.1 -2.8 -1.1 -5.1 0 -2.3 0.4 -4.1 1.2 -5.2 0.8 -1.1 2.1 -1.7 3.8 -1.7 1 0 1.8 0.2 2.5 0.6 0.7 0.4 1.2 1 1.6 1.8 l0 0 c-0 -0.2 0 -0.6 0.1 -1.3 0 -0.6 0.1 -1 0.1 -1 l2.2 0 c-0.1 0.5 -0.1 1.4 -0.1 2.8 l0 10.3 c-0 1.9 -0.5 3.3 -1.4 4.2 -0.9 1 -2.2 1.4 -4.1 1.4 m3.2 -12.2 c-0 -1.6 -0.3 -2.9 -1 -3.8 -0.6 -1 -1.5 -1.4 -2.6 -1.4 -1.1 0 -2 0.4 -2.5 1.2 -0.5 0.8 -0.8 2.1 -0.8 4 0 1.3 0.1 2.2 0.3 3 0.2 0.7 0.6 1.3 1 1.6 0.5 0.3 1 0.5 1.9 0.5 0.7 0 1.4 -0.2 1.8 -0.6 0.6 -0.4 1 -1 1.3 -1.8 0.3 -0.8 0.4 -1.7 0.4 -2.7 " class="style5"/><path d="m439.5 445.7 c-0 1.5 0.3 2.7 1 3.6 0.6 0.9 1.6 1.3 2.8 1.3 0.9 0 1.6 -0.2 2.2 -0.6 0.6 -0.4 1.1 -0.9 1.3 -1.5 l2 0.6 c-0.4 1 -1 1.8 -2 2.4 -1 0.6 -2.2 0.8 -3.5 0.8 -2 0 -3.4 -0.6 -4.6 -1.8 -1 -1.2 -1.6 -3 -1.6 -5.3 0 -2.2 0.5 -3.9 1.5 -5.1 1 -1.2 2.6 -1.8 4.5 -1.8 1.9 0 3.4 0.6 4.5 1.8 1 1.2 1.5 3 1.5 5.4 l0 0.3 -9.7 0 m3.7 -5.8 c-1.1 0 -2 0.4 -2.6 1.1 -0.6 0.7 -1 1.8 -1 3 l7.3 0 c-0.2 -2.7 -1.4 -4.1 -3.6 -4.1 " class="style5"/><path d="m475.5 450.2 4.7 0 0 1.8 -12.2 0 0 -1.8 5.3 0 0 -10 -4 0 0 -1.8 6.2 0 0 11.8 m-2.5 -14.4 0 -2.4 2.5 0 0 2.4 -2.5 0 " class="style5"/><path d="m494.8 448.1 c-0 1.3 -0.5 2.3 -1.4 3 -1 0.7 -2.3 1.1 -4 1.1 -1.7 0 -3 -0.2 -3.9 -0.8 -0.9 -0.6 -1.4 -1.4 -1.8 -2.6 L485.6 448.5 c0.2 0.7 0.5 1.3 1 1.6 0.6 0.3 1.4 0.5 2.6 0.5 2.2 0 3.4 -0.7 3.4 -2.2 -0 -0.6 -0.2 -1 -0.6 -1.3 -0.4 -0.3 -1 -0.6 -1.8 -0.8 -2.2 -0.6 -3.6 -1 -4.2 -1.3 -0.6 -0.3 -1 -0.7 -1.4 -1.1 -0.3 -0.5 -0.5 -1 -0.5 -1.8 0 -1.2 0.5 -2.2 1.4 -2.9 0.9 -0.7 2.2 -1 3.8 -1 1.4 0 2.6 0.2 3.5 0.8 0.9 0.6 1.4 1.4 1.6 2.4 l-2 0.2 c-0.1 -0.6 -0.4 -1 -0.9 -1.4 -0.5 -0.3 -1.3 -0.5 -2.2 -0.5 -2.1 0 -3 0.6 -3 1.9 -0 0.5 0.2 0.9 0.5 1.2 0.3 0.3 0.9 0.6 1.7 0.7 l1.5 0.4 c1.4 0.3 2.3 0.6 3 1 0.6 0.3 1 0.7 1.4 1.2 0.3 0.5 0.5 1 0.5 1.8 " class="style5"/><path d="m523 451.9 0 -8.7 c-0 -1.1 -0.2 -2 -0.6 -2.6 -0.4 -0.6 -1.1 -0.8 -2.1 -0.8 -1 0 -1.9 0.4 -2.6 1.1 -0.6 0.7 -1 1.8 -1 3 l0 7.8 -2.2 0 0 -10.6 c0 -1.6 -0 -2.6 -0.1 -2.9 l2.2 0 c0 0.1 0 0.2 0 0.3 0 0.2 0 0.4 0 0.6 0 0.2 0 0.6 0.1 1.4 l0 0 c0.9 -1.7 2.3 -2.6 4.3 -2.6 1.4 0 2.5 0.4 3.2 1.2 0.7 0.8 1 2 1 3.6 l0 9 -2.2 0 " class="style5"/><path d="m541.3 445.2 c-0 2.2 -0.6 4 -1.6 5.2 -1 1.2 -2.6 1.8 -4.6 1.8 -1.9 0 -3.4 -0.6 -4.5 -1.8 -1 -1.2 -1.5 -3 -1.5 -5.2 0 -2.3 0.6 -4.1 1.6 -5.2 1 -1.2 2.6 -1.8 4.5 -1.8 2 0 3.5 0.6 4.6 1.8 1 1.1 1.5 2.9 1.5 5.3 m-2.4 0 c-0 -1.8 -0.3 -3.1 -0.9 -4 -0.6 -0.9 -1.5 -1.4 -2.8 -1.4 -1.3 0 -2.2 0.5 -2.8 1.4 -0.6 0.9 -0.9 2.2 -0.9 4 0 1.8 0.3 3.1 0.9 4 0.6 0.9 1.5 1.4 2.7 1.4 1.4 0 2.3 -0.5 2.9 -1.4 0.6 -0.9 0.9 -2.2 0.9 -4 " class="style5"/><path d="m545.3 440.2 0 -1.8 2.2 0 0.7 -3.5 1.5 0 0 3.5 5.4 0 0 1.8 -5.4 0 0 8.2 c-0 0.6 0.2 1.1 0.6 1.4 0.3 0.3 1 0.5 1.8 0.5 1.1 0 2.3 -0.2 3.7 -0.4 l0 1.7 c-1.4 0.4 -2.8 0.6 -4.2 0.6 -1.4 0 -2.4 -0.3 -3 -0.9 -0.6 -0.6 -1 -1.4 -1 -2.7 l0 -8.4 -2.1 0 " class="style5"/><path d="m580.9 440.2 0 11.8 -2.2 0 0 -11.8 -3.3 0 0 -1.8 3.3 0 0 -0.3 c-0 -1.7 0.4 -3 1.2 -3.6 0.8 -0.7 2.2 -1 4 -1 0.6 0 1.3 0 1.9 0.1 0.7 0.1 1.2 0.1 1.6 0.2 l0 1.8 c-0.2 -0.1 -0.7 -0.1 -1.5 -0.2 -0.7 -0.1 -1.4 -0.1 -1.8 -0.1 -0.9 0 -1.5 0.1 -2 0.3 -0.5 0.2 -0.8 0.5 -1 1 -0.2 0.4 -0.3 1 -0.3 1.8 l0 0.2 6.2 0 0 1.8 -6.2 0 " class="style5"/><path d="m602.7 445.2 c-0 2.2 -0.6 4 -1.6 5.2 -1 1.2 -2.6 1.8 -4.6 1.8 -1.9 0 -3.4 -0.6 -4.5 -1.8 -1 -1.2 -1.5 -3 -1.5 -5.2 0 -2.3 0.6 -4.1 1.6 -5.2 1 -1.2 2.6 -1.8 4.5 -1.8 2 0 3.5 0.6 4.6 1.8 1 1.1 1.5 2.9 1.5 5.3 m-2.4 0 c-0 -1.8 -0.3 -3.1 -0.9 -4 -0.6 -0.9 -1.5 -1.4 -2.8 -1.4 -1.3 0 -2.2 0.5 -2.8 1.4 -0.6 0.9 -0.9 2.2 -0.9 4 0 1.8 0.3 3.1 0.9 4 0.6 0.9 1.5 1.4 2.7 1.4 1.4 0 2.3 -0.5 2.9 -1.4 0.6 -0.9 0.9 -2.2 0.9 -4 " class="style5"/><path d="m608.9 438.4 0 8.6 c0 1.3 0.2 2.2 0.6 2.7 0.4 0.5 1.1 0.7 2.2 0.7 1 0 1.9 -0.4 2.6 -1.1 0.6 -0.7 1 -1.8 1 -3.1 l0 -7.8 2.2 0 0 10.6 c-0 1.6 0 2.6 0.1 2.9 l-2.2 0 c-0 -0.1 -0 -0.2 -0 -0.3 -0 -0.2 -0 -0.4 -0 -0.6 -0 -0.2 -0 -0.7 -0 -1.4 l-0 0 c-0.5 1 -1.1 1.6 -1.8 2 -0.6 0.4 -1.5 0.6 -2.6 0.6 -1.5 0 -2.6 -0.4 -3.3 -1.1 -0.7 -0.7 -1 -2 -1 -3.7 l0 -9 2.2 0 " class="style5"/><path d="m630.6 451.9 0 -8.7 c-0 -1.1 -0.2 -2 -0.6 -2.6 -0.4 -0.6 -1.1 -0.8 -2.1 -0.8 -1 0 -1.9 0.4 -2.6 1.1 -0.6 0.7 -1 1.8 -1 3 l0 7.8 -2.2 0 0 -10.6 c0 -1.6 -0 -2.6 -0.1 -2.9 l2.2 0 c0 0.1 0 0.2 0 0.3 0 0.2 0 0.4 0 0.6 0 0.2 0 0.6 0.1 1.4 l0 0 c0.9 -1.7 2.3 -2.6 4.3 -2.6 1.4 0 2.5 0.4 3.2 1.2 0.7 0.8 1 2 1 3.6 l0 9 -2.2 0 " class="style5"/><path d="m645.8 449.8 c-0.4 0.9 -1 1.5 -1.6 1.9 -0.6 0.4 -1.5 0.6 -2.6 0.6 -1.7 0 -3 -0.6 -3.7 -1.8 -0.8 -1.1 -1.2 -2.9 -1.2 -5.2 0 -4.7 1.6 -7 4.9 -7 1 0 1.8 0.2 2.6 0.6 0.7 0.3 1.2 1 1.6 1.8 l0 0 -0 -1.9 0 -5.2 2.2 0 0 15.8 c-0 1.4 0 2.3 0.1 2.8 l-2.2 0 c-0 -0.2 -0.1 -0.4 -0.1 -0.9 -0 -0.5 -0 -0.9 -0 -1.3 l-0.1 0 m-6.7 -4.6 c-0 1.8 0.2 3.2 0.7 4.1 0.5 0.9 1.3 1.3 2.4 1.3 1.2 0 2.1 -0.4 2.7 -1.3 0.6 -0.9 0.9 -2.3 0.9 -4.2 -0 -1.8 -0.3 -3.1 -0.9 -3.9 -0.6 -0.8 -1.4 -1.2 -2.7 -1.2 -1.1 0 -1.9 0.4 -2.4 1.3 -0.5 0.9 -0.7 2.2 -0.7 4.1 " class="style5"/><path d="m457.3 479.3 c-0 1.5 -0.6 2.7 -1.7 3.6 -1.1 0.9 -2.7 1.3 -4.8 1.3 -3.8 0 -6 -1.5 -6.6 -4.5 l2.3 -0.5 c0.2 1 0.7 1.8 1.4 2.3 0.7 0.5 1.7 0.7 3 0.7 1.4 0 2.3 -0.2 3 -0.8 0.7 -0.5 1 -1.3 1 -2.2 -0 -0.6 -0.2 -1 -0.4 -1.4 -0.2 -0.4 -0.6 -0.6 -1 -0.9 -0.5 -0.2 -1 -0.4 -1.5 -0.6 -0.6 -0.2 -1.1 -0.3 -1.7 -0.4 -1.4 -0.3 -2.3 -0.6 -2.9 -1 -0.6 -0.2 -1 -0.6 -1.4 -1 -0.3 -0.3 -0.6 -0.8 -0.8 -1.2 -0.2 -0.5 -0.2 -1 -0.2 -1.6 0 -1.4 0.5 -2.6 1.5 -3.4 1 -0.8 2.5 -1.2 4.4 -1.2 1.8 0 3.1 0.3 4.1 1 1 0.6 1.6 1.7 1.9 3.1 l-2.3 0.4 c-0.2 -1 -0.6 -1.6 -1.2 -2 -0.6 -0.4 -1.4 -0.6 -2.5 -0.6 -2.3 0 -3.5 0.9 -3.5 2.6 0 0.5 0.1 0.9 0.3 1.2 0.2 0.3 0.6 0.6 0.9 0.8 0.4 0.2 0.8 0.4 1.4 0.5 0.5 0.2 1 0.2 1.6 0.4 1.1 0.3 2 0.6 2.5 0.7 0.5 0.2 1 0.4 1.4 0.6 0.4 0.2 0.7 0.6 1 0.9 0.3 0.3 0.5 0.7 0.6 1.2 0.2 0.5 0.2 1 0.2 1.6 " class="style5"/><path d="m470.2 479.9 0 4 -2.2 0 0 -4 -8.2 0 0 -1.8 7.9 -11.1 2.5 0 0 11.1 2.3 0 0 1.8 -2.3 0 m-2.2 -10.4 -6.2 8.6 6.2 0 0 -8.6 " class="style5"/><path d="m475.8 483.9 0 -16.9 11.5 0 0 1.9 -9.1 0 0 5.3 8.3 0 0 1.9 -8.3 0 0 5.8 9.6 0 0 1.9 -12 0 " class="style5"/><path d="m503 475.5 c-0 2.8 -0.6 5 -1.6 6.5 -1 1.5 -2.6 2.2 -4.6 2.2 -2 0 -3.5 -0.7 -4.6 -2.2 -1 -1.5 -1.5 -3.7 -1.5 -6.5 0 -2.9 0.5 -5.1 1.5 -6.6 1 -1.4 2.6 -2.2 4.6 -2.2 2.1 0 3.6 0.7 4.6 2.2 1 1.4 1.5 3.6 1.5 6.5 m-2.3 0 c-0 -2.4 -0.3 -4.2 -0.9 -5.2 -0.6 -1.1 -1.5 -1.6 -2.9 -1.6 -1.4 0 -2.4 0.6 -3 1.6 -0.6 1 -0.9 2.8 -0.9 5.3 0 2.4 0.3 4.1 0.9 5.2 0.6 1.1 1.6 1.6 3 1.6 1.4 0 2.3 -0.6 2.9 -1.7 0.6 -1.1 1 -2.9 1 -5.2 m-5.3 1.5 0 -3.1 3 0 0 3.1 -3 0 " class="style5"/><path d="m516.2 479.9 0 4 -2.2 0 0 -4 -8.2 0 0 -1.8 7.9 -11.1 2.5 0 0 11.1 2.3 0 0 1.8 -2.3 0 m-2.2 -10.4 -6.2 8.6 6.2 0 0 -8.6 " class="style5"/><path d="m323.3 515.9 0 -16.9 2.4 0 0 14.9 8.4 0 0 1.9 -10.8 0 " class="style5"/><path d="m345 514.2 4.7 0 0 1.8 -12.2 0 0 -1.8 5.3 0 0 -10 -4 0 0 -1.8 6.2 0 0 11.8 m-2.5 -14.4 0 -2.4 2.5 0 0 2.4 -2.5 0 " class="style5"/><path d="m364.3 512.1 c-0 1.3 -0.5 2.3 -1.4 3 -1 0.7 -2.3 1.1 -4 1.1 -1.7 0 -3 -0.2 -3.9 -0.8 -0.9 -0.6 -1.4 -1.4 -1.8 -2.6 l2 -0.4 c0.2 0.7 0.5 1.3 1 1.6 0.6 0.3 1.4 0.5 2.6 0.5 2.2 0 3.4 -0.7 3.4 -2.2 -0 -0.6 -0.2 -1 -0.6 -1.3 -0.4 -0.3 -1 -0.6 -1.8 -0.8 -2.2 -0.6 -3.6 -1 -4.2 -1.3 -0.6 -0.3 -1 -0.7 -1.4 -1.1 -0.3 -0.5 -0.5 -1 -0.5 -1.8 0 -1.2 0.5 -2.2 1.4 -2.9 0.9 -0.7 2.2 -1 3.8 -1 1.4 0 2.6 0.2 3.5 0.8 0.9 0.6 1.4 1.4 1.6 2.4 l-2 0.2 c-0.1 -0.6 -0.4 -1 -0.9 -1.4 -0.5 -0.3 -1.3 -0.5 -2.2 -0.5 -2.1 0 -3 0.6 -3 1.9 -0 0.5 0.2 0.9 0.5 1.2 0.3 0.3 0.9 0.6 1.7 0.7 l1.5 0.4 c1.4 0.3 2.3 0.6 3 1 0.6 0.3 1 0.7 1.4 1.2 0.3 0.5 0.5 1 0.5 1.8 " class="style5"/><path d="m380.2 514.6 c0.2 0 0.5 -0 0.7 -0.1 l0 1.4 c-0.6 0.2 -1.1 0.2 -1.8 0.2 -0.8 0 -1.4 -0.2 -1.8 -0.6 -0.4 -0.5 -0.6 -1.1 -0.6 -2.1 l-0.1 0 c-0.6 1 -1.2 1.8 -1.9 2.2 -0.7 0.5 -1.7 0.6 -2.7 0.6 -1.3 0 -2.3 -0.3 -3 -1 -0.6 -0.7 -1 -1.7 -1 -3 0 -2.9 1.9 -4.4 5.7 -4.4 l3 -0.1 0 -0.7 c-0 -1.1 -0.2 -1.8 -0.6 -2.3 -0.5 -0.5 -1.1 -0.7 -2.1 -0.7 -1 0 -1.7 0.2 -2.2 0.6 -0.4 0.3 -0.7 0.9 -0.8 1.6 l-2.3 -0.2 c0.4 -2.4 2.2 -3.7 5.3 -3.7 1.7 0 2.9 0.4 3.8 1.2 0.9 0.8 1.3 1.9 1.3 3.4 l0 5.8 c-0 0.6 0.1 1.2 0.2 1.5 0.2 0.3 0.5 0.5 1 0.5 m-7.6 -0.1 c0.8 0 1.5 -0.2 2.2 -0.6 0.6 -0.4 1.1 -0.9 1.4 -1.5 0.3 -0.6 0.5 -1.3 0.5 -2 l0 -1.1 -2.4 0.1 c-1 0 -1.8 0.2 -2.2 0.3 -0.5 0.2 -1 0.5 -1.2 1 -0.3 0.4 -0.4 1 -0.4 1.6 0 0.7 0.2 1.2 0.6 1.7 0.4 0.4 1 0.6 1.6 0.6 " class="style5"/><path d="m399.4 504.2 0 -1.8 2.2 0 0.7 -3.5 1.5 0 0 3.5 5.4 0 0 1.8 -5.4 0 0 8.2 c-0 0.6 0.2 1.1 0.6 1.4 0.3 0.3 1 0.5 1.8 0.5 1.1 0 2.3 -0.2 3.7 -0.4 l0 1.7 c-1.4 0.4 -2.8 0.6 -4.2 0.6 -1.4 0 -2.4 -0.3 -3 -0.9 -0.6 -0.6 -1 -1.4 -1 -2.7 l0 -8.4 -2.1 0 " class="style5"/><path d="m414.8 497.4 2.2 0 0 4.9 c-0 0.5 -0 1.3 -0.1 2.5 l0 0 c0.9 -1.7 2.3 -2.6 4.2 -2.6 2.9 0 4.4 1.6 4.4 4.8 l0 9 -2.2 0 0 -8.7 c-0 -1.1 -0.2 -2 -0.6 -2.6 -0.4 -0.6 -1.1 -0.8 -2.1 -0.8 -1 0 -1.9 0.4 -2.6 1.1 -0.6 0.7 -1 1.8 -1 3 l0 7.8 -2.2 0 0 -18.6 " class="style5"/><path d="m431.8 509.7 c-0 1.5 0.3 2.7 1 3.6 0.6 0.9 1.6 1.3 2.8 1.3 0.9 0 1.6 -0.2 2.2 -0.6 0.6 -0.4 1.1 -0.9 1.3 -1.5 l2 0.6 c-0.4 1 -1 1.8 -2 2.4 -1 0.6 -2.2 0.8 -3.5 0.8 -2 0 -3.4 -0.6 -4.6 -1.8 -1 -1.2 -1.6 -3 -1.6 -5.3 0 -2.2 0.5 -3.9 1.5 -5.1 1 -1.2 2.6 -1.8 4.5 -1.8 1.9 0 3.4 0.6 4.5 1.8 1 1.2 1.5 3 1.5 5.4 l0 0.3 -9.7 0 m3.7 -5.8 c-1.1 0 -2 0.4 -2.6 1.1 -0.6 0.7 -1 1.8 -1 3 l7.3 0 c-0.2 -2.7 -1.4 -4.1 -3.6 -4.1 " class="style5"/><path d="m472.9 511.2 c-0 1.5 -0.6 2.6 -1.7 3.5 -1.1 0.8 -2.7 1.3 -4.8 1.3 l-5.9 0 0 -16.9 5.1 0 c4.2 0 6.2 1.4 6.2 4.1 -0 1 -0.3 1.8 -0.9 2.6 -0.6 0.7 -1.4 1.1 -2.5 1.4 1.4 0.2 2.5 0.6 3.2 1.4 0.8 0.7 1.1 1.7 1.1 2.8 m-3.4 -7.8 c-0 -0.9 -0.3 -1.5 -1 -1.9 -0.6 -0.4 -1.6 -0.6 -2.8 -0.6 l-2.8 0 0 5.2 2.8 0 c2.5 0 3.8 -0.9 3.8 -2.7 m1 7.5 c-0 -1 -0.4 -1.7 -1.1 -2.2 -0.7 -0.5 -1.8 -0.7 -3.3 -0.7 l-3.1 0 0 6 3.4 0 c1.4 0 2.6 -0.2 3.2 -0.7 0.7 -0.5 1 -1.3 1 -2.3 " class="style5"/><path d="m477.8 509.7 c-0 1.5 0.3 2.7 1 3.6 0.6 0.9 1.6 1.3 2.8 1.3 0.9 0 1.6 -0.2 2.2 -0.6 0.6 -0.4 1.1 -0.9 1.3 -1.5 l2 0.6 c-0.4 1 -1 1.8 -2 2.4 -1 0.6 -2.2 0.8 -3.5 0.8 -2 0 -3.4 -0.6 -4.6 -1.8 -1 -1.2 -1.6 -3 -1.6 -5.3 0 -2.2 0.5 -3.9 1.5 -5.1 1 -1.2 2.6 -1.8 4.5 -1.8 1.9 0 3.4 0.6 4.5 1.8 1 1.2 1.5 3 1.5 5.4 l0 0.3 -9.7 0 m3.7 -5.8 c-1.1 0 -2 0.4 -2.6 1.1 -0.6 0.7 -1 1.8 -1 3 l7.3 0 c-0.2 -2.7 -1.4 -4.1 -3.6 -4.1 " class="style5"/><path d="m503 514.6 c0.2 0 0.5 -0 0.7 -0.1 l0 1.4 c-0.6 0.2 -1.1 0.2 -1.8 0.2 -0.8 0 -1.4 -0.2 -1.8 -0.6 -0.4 -0.5 -0.6 -1.1 -0.6 -2.1 l-0.1 0 c-0.6 1 -1.2 1.8 -1.9 2.2 -0.7 0.5 -1.7 0.6 -2.7 0.6 -1.3 0 -2.3 -0.3 -3 -1 -0.6 -0.7 -1 -1.7 -1 -3 0 -2.9 1.9 -4.4 5.7 -4.4 l3 -0.1 0 -0.7 c-0 -1.1 -0.2 -1.8 -0.6 -2.3 -0.5 -0.5 -1.1 -0.7 -2.1 -0.7 -1 0 -1.7 0.2 -2.2 0.6 -0.4 0.3 -0.7 0.9 -0.8 1.6 l-2.3 -0.2 c0.4 -2.4 2.2 -3.7 5.3 -3.7 1.7 0 2.9 0.4 3.8 1.2 0.9 0.8 1.3 1.9 1.3 3.4 l0 5.8 c-0 0.6 0.1 1.2 0.2 1.5 0.2 0.3 0.5 0.5 1 0.5 m-7.6 -0.1 c0.8 0 1.5 -0.2 2.2 -0.6 0.6 -0.4 1.1 -0.9 1.4 -1.5 0.3 -0.6 0.5 -1.3 0.5 -2 l0 -1.1 -2.4 0.1 c-1 0 -1.8 0.2 -2.2 0.3 -0.5 0.2 -1 0.5 -1.2 1 -0.3 0.4 -0.4 1 -0.4 1.6 0 0.7 0.2 1.2 0.6 1.7 0.4 0.4 1 0.6 1.6 0.6 " class="style5"/><path d="m509.1 502.4 0 8.6 c0 1.3 0.2 2.2 0.6 2.7 0.4 0.5 1.1 0.7 2.2 0.7 1 0 1.9 -0.4 2.6 -1.1 0.6 -0.7 1 -1.8 1 -3.1 l0 -7.8 2.2 0 0 10.6 c-0 1.6 0 2.6 0.1 2.9 l-2.2 0 c-0 -0.1 -0 -0.2 -0 -0.3 -0 -0.2 -0 -0.4 -0 -0.6 -0 -0.2 -0 -0.7 -0 -1.4 l-0 0 c-0.5 1 -1.1 1.6 -1.8 2 -0.6 0.4 -1.5 0.6 -2.6 0.6 -1.5 0 -2.6 -0.4 -3.3 -1.1 -0.7 -0.7 -1 -2 -1 -3.7 l0 -9 2.2 0 " class="style5"/><path d="m522.2 504.2 0 -1.8 2.2 0 0.7 -3.5 1.5 0 0 3.5 5.4 0 0 1.8 -5.4 0 0 8.2 c-0 0.6 0.2 1.1 0.6 1.4 0.3 0.3 1 0.5 1.8 0.5 1.1 0 2.3 -0.2 3.7 -0.4 l0 1.7 c-1.4 0.4 -2.8 0.6 -4.2 0.6 -1.4 0 -2.4 -0.3 -3 -0.9 -0.6 -0.6 -1 -1.4 -1 -2.7 l0 -8.4 -2.1 0 " class="style5"/><path d="m538.9 521.3 c-0.6 -0 -1.1 -0.1 -1.5 -0.2 l0 -1.7 c0.3 0.1 0.6 0.1 1 0.1 0.6 -0 1.3 -0.2 1.8 -0.7 0.6 -0.5 1 -1.3 1.4 -2.3 l0.2 -0.6 -5.8 -13.4 2.4 0 3.3 8 c0.7 1.8 1.2 3 1.2 3.2 l0.5 -1.4 3.8 -9.8 2.4 0 -5.7 13.5 c-0.7 1.9 -1.5 3.4 -2.3 4.2 -0.8 0.8 -1.8 1.2 -2.9 1.2 " class="style5"/><path d="m580 507.4 c-0 2.4 -0.4 4.3 -1.2 5.8 -0.8 1.4 -2 2.4 -3.5 2.7 0.3 1 0.8 1.8 1.4 2.3 0.6 0.5 1.3 0.7 2.1 0.7 0.5 0 1 -0.1 1.4 -0.2 l0 1.7 c-0.8 0.2 -1.5 0.2 -2.2 0.2 -1.3 -0 -2.3 -0.3 -3.1 -1 -0.8 -0.7 -1.4 -1.9 -2 -3.6 -1.8 -0.2 -3.2 -1 -4.2 -2.5 -1 -1.5 -1.4 -3.5 -1.4 -6.2 0 -2.8 0.6 -5 1.6 -6.4 1.1 -1.4 2.6 -2.2 4.8 -2.2 2.1 0 3.6 0.7 4.7 2.2 1.1 1.4 1.7 3.6 1.7 6.4 m-2.5 0 c-0 -4.5 -1.3 -6.6 -3.8 -6.6 -2.6 0 -3.9 2.2 -3.9 6.6 0 2.2 0.3 3.9 1 5.1 0.6 1.1 1.6 1.8 2.9 1.8 1.4 0 2.3 -0.6 3 -1.8 0.6 -1.2 1 -2.9 1 -5 " class="style5"/><path d="m585.8 502.4 0 8.6 c0 1.3 0.2 2.2 0.6 2.7 0.4 0.5 1.1 0.7 2.2 0.7 1 0 1.9 -0.4 2.6 -1.1 0.6 -0.7 1 -1.8 1 -3.1 l0 -7.8 2.2 0 0 10.6 c-0 1.6 0 2.6 0.1 2.9 l-2.2 0 c-0 -0.1 -0 -0.2 -0 -0.3 -0 -0.2 -0 -0.4 -0 -0.6 -0 -0.2 -0 -0.7 -0 -1.4 l-0 0 c-0.5 1 -1.1 1.6 -1.8 2 -0.6 0.4 -1.5 0.6 -2.6 0.6 -1.5 0 -2.6 -0.4 -3.3 -1.1 -0.7 -0.7 -1 -2 -1 -3.7 l0 -9 2.2 0 " class="style5"/><path d="m600.6 509.7 c-0 1.5 0.3 2.7 1 3.6 0.6 0.9 1.6 1.3 2.8 1.3 0.9 0 1.6 -0.2 2.2 -0.6 0.6 -0.4 1.1 -0.9 1.3 -1.5 l2 0.6 c-0.4 1 -1 1.8 -2 2.4 -1 0.6 -2.2 0.8 -3.5 0.8 -2 0 -3.4 -0.6 -4.6 -1.8 -1 -1.2 -1.6 -3 -1.6 -5.3 0 -2.2 0.5 -3.9 1.5 -5.1 1 -1.2 2.6 -1.8 4.5 -1.8 1.9 0 3.4 0.6 4.5 1.8 1 1.2 1.5 3 1.5 5.4 l0 0.3 -9.7 0 m3.7 -5.8 c-1.1 0 -2 0.4 -2.6 1.1 -0.6 0.7 -1 1.8 -1 3 l7.3 0 c-0.2 -2.7 -1.4 -4.1 -3.6 -4.1 " class="style5"/><path d="m616 509.7 c-0 1.5 0.3 2.7 1 3.6 0.6 0.9 1.6 1.3 2.8 1.3 0.9 0 1.6 -0.2 2.2 -0.6 0.6 -0.4 1.1 -0.9 1.3 -1.5 l2 0.6 c-0.4 1 -1 1.8 -2 2.4 -1 0.6 -2.2 0.8 -3.5 0.8 -2 0 -3.4 -0.6 -4.6 -1.8 -1 -1.2 -1.6 -3 -1.6 -5.3 0 -2.2 0.5 -3.9 1.5 -5.1 1 -1.2 2.6 -1.8 4.5 -1.8 1.9 0 3.4 0.6 4.5 1.8 1 1.2 1.5 3 1.5 5.4 l0 0.3 -9.7 0 m3.7 -5.8 c-1.1 0 -2 0.4 -2.6 1.1 -0.6 0.7 -1 1.8 -1 3 l7.3 0 c-0.2 -2.7 -1.4 -4.1 -3.6 -4.1 " class="style5"/><path d="m638.2 515.9 0 -8.7 c-0 -1.1 -0.2 -2 -0.6 -2.6 -0.4 -0.6 -1.1 -0.8 -2.1 -0.8 -1 0 -1.9 0.4 -2.6 1.1 -0.6 0.7 -1 1.8 -1 3 l0 7.8 -2.2 0 0 -10.6 c0 -1.6 -0 -2.6 -0.1 -2.9 l2.2 0 c0 0.1 0 0.2 0 0.3 0 0.2 0 0.4 0 0.6 0 0.2 0 0.6 0.1 1.4 l0 0 c0.9 -1.7 2.3 -2.6 4.3 -2.6 1.4 0 2.5 0.4 3.2 1.2 0.7 0.8 1 2 1 3.6 l0 9 -2.2 0 " class="style5"/></g><path d="m502.2 216.2 55.5 0 0 34.3 -55.5 0 z" class="style3"/><path d="m554.4 216.6 6.5 0 0 18.5 -6.5 0 z" class="style3"/><path d="m514.8 245 32.6 0 0 9.8 -32.6 0 z" class="style3"/><path d="m544.4 250.1 7.4 0 0 4.1 -7.4 0 z" class="style3"/><path d="m501.4 206.9 32.2 0 0 22.2 -32.2 0 z" class="style3"/><path d="m525.2 212.7 20.6 0 0 3.2 -20.6 0 z" class="style3"/><path d="m528.1 206 6.6 0 0 6.7 -6.6 0 z" class="style3"/><path d="m533.9 209.2 6.6 0 0 3.7 -6.6 0 z" class="style3"/><path d="m504.1 205 24.4 0 0 4.4 -24.4 0 z" class="style3"/><g class="style6"/><path d="m273 429.8 532.9 0 0 104.2 -532.9 0 z" class="style3"/><g transform="matrix(1.0476748,0,0,1.0476748,-134.53731,-150.79574)" class="style7"><path d="m 454.7 568.1 0 7 -3 0 0 -7 -5.8 -10.1 3.2 0 4.1 7.3 4.1 -7.3 3.2 0 -5.8 10.1" class="style8"/><path d="m 461.5 566.4 c 0 -2.4 0.7 -4.5 2 -6.2 1.3 -1.7 3.1 -2.5 5.4 -2.5 2.5 0 4.4 0.8 5.7 2.3 1.3 1.5 2 3.7 2 6.4 -0 2.8 -0.7 5 -2.1 6.6 -1.4 1.6 -3.3 2.4 -5.8 2.4 -2.3 0 -4.1 -0.8 -5.3 -2.4 -1.2 -1.6 -1.8 -3.8 -1.8 -6.6 m 3.2 0 c 0 2 0.3 3.6 1 4.7 0.7 1.1 1.7 1.7 3 1.7 1.5 0 2.7 -0.5 3.5 -1.6 0.8 -1.1 1.2 -2.6 1.2 -4.7 -0 -4 -1.5 -6 -4.5 -6 -1.4 0 -2.4 0.5 -3.1 1.6 -0.7 1.1 -1.1 2.6 -1.1 4.4" class="style8"/><path d="m 479.2 557.9 3 0 0 11.6 c 0 0.9 0.3 1.7 0.8 2.2 0.6 0.6 1.3 0.9 2.3 0.9 1.1 0 2 -0.3 2.6 -0.8 0.6 -0.6 0.9 -1.3 0.9 -2.3 l 0 -11.6 3 0 0 11.8 c -0 1.8 -0.6 3.1 -1.8 4.1 -1.2 1 -2.8 1.5 -4.7 1.5 -2 0 -3.5 -0.5 -4.6 -1.5 -1.1 -1 -1.6 -2.4 -1.6 -4.2 l 0 -11.8" class="style8"/><path d="m 505.1 575.1 -4.6 -7.1 c -0.5 -0 -1.1 -0 -1.9 -0.1 l 0 7.2 -3.2 0 0 -17.2 c 0.2 0 0.8 -0 2 -0.1 1.1 -0.1 2.1 -0.1 2.8 -0.1 4.4 0 6.5 1.7 6.5 5.1 -0 1 -0.3 1.9 -0.9 2.8 -0.6 0.8 -1.4 1.4 -2.3 1.8 l 5.1 7.7 -3.5 0 m -6.5 -14.5 0 4.8 c 0.6 0 1 0.1 1.3 0.1 1.3 0 2.2 -0.2 2.8 -0.5 0.6 -0.4 0.9 -1.1 0.9 -2.1 -0 -0.8 -0.3 -1.4 -0.9 -1.8 -0.6 -0.3 -1.6 -0.5 -3 -0.5 -0.3 0 -0.7 0 -1 0.1" class="style8"/><path d="m 520.4 568.8 0 6.3 -3 0 0 -17.2 c 2 -0.1 3.2 -0.1 3.6 -0.1 2.7 0 4.7 0.4 5.9 1.3 1.3 0.8 1.9 2.1 1.9 3.9 -0 3.9 -2.3 5.9 -7 5.9 -0.3 0 -0.8 -0 -1.4 -0.1 m 0 -8.2 0 5.5 c 0.5 0.1 0.9 0.1 1.2 0.1 1.4 0 2.4 -0.2 3 -0.7 0.6 -0.5 1 -1.2 1 -2.3 -0 -1.8 -1.4 -2.7 -4.3 -2.7 -0.3 0 -0.6 0 -0.9 0.1" class="style8"/><path d="m 539.7 575.1 -1.3 -3.5 -5.9 0 -1.2 3.5 -3.4 0 6.8 -17.4 1.3 0 6.9 17.4 -3.4 0 m -4.2 -12.2 -2.1 6.3 4.1 0 -2.1 -6.3" class="style8"/><path d="m 557.5 559.3 -1.3 2.4 c -0.4 -0.3 -0.9 -0.6 -1.7 -0.9 -0.8 -0.3 -1.4 -0.5 -1.9 -0.5 -1.7 0 -3 0.6 -4 1.7 -1 1.1 -1.5 2.7 -1.5 4.6 0 1.8 0.5 3.3 1.4 4.4 1 1.1 2.3 1.6 3.9 1.6 1.1 0 2 -0.3 2.7 -0.9 l 0 -3.4 -2.4 0 0 -2.6 5.4 0 0 7.7 c -0.7 0.6 -1.7 1.1 -2.8 1.4 -1.1 0.3 -2.3 0.5 -3.4 0.5 -2.5 0 -4.4 -0.8 -5.9 -2.4 -1.4 -1.6 -2.2 -3.8 -2.2 -6.4 0 -2.6 0.8 -4.8 2.4 -6.5 1.6 -1.7 3.7 -2.5 6.3 -2.5 1.9 0 3.5 0.6 4.8 1.7" class="style8"/><path d="m 564 560.6 0 4 5.7 0 0 2.6 -5.7 0 0 5.1 7.8 0 0 2.7 -10.8 0 0 -17.2 11 0 0 2.7 -7.9 0" class="style8"/><path d="m 581.9 575.1 0 -17.2 3 0 0 17.2 -3 0" class="style8"/><path d="m 587.7 574.2 1.1 -2.7 c 1.2 0.8 2.4 1.3 3.6 1.3 1.8 0 2.7 -0.6 2.7 -1.9 -0 -0.6 -0.2 -1.1 -0.6 -1.7 -0.4 -0.5 -1.3 -1.1 -2.6 -1.8 -1.3 -0.7 -2.2 -1.2 -2.7 -1.6 -0.5 -0.4 -0.8 -0.9 -1.1 -1.5 -0.2 -0.6 -0.4 -1.2 -0.4 -1.9 0 -1.3 0.5 -2.4 1.5 -3.3 1 -0.9 2.2 -1.3 3.8 -1.3 2 0 3.4 0.4 4.4 1.1 l -0.9 2.6 c -1.1 -0.8 -2.2 -1.1 -3.4 -1.1 -0.7 0 -1.3 0.2 -1.6 0.6 -0.4 0.4 -0.6 0.8 -0.6 1.4 0 1 1.1 2 3.3 3.1 1.1 0.6 2 1.1 2.5 1.6 0.5 0.5 0.9 1 1.2 1.7 0.3 0.6 0.4 1.3 0.4 2.1 -0 1.4 -0.6 2.5 -1.7 3.4 -1.1 0.9 -2.6 1.3 -4.4 1.3 -1.6 0 -3 -0.4 -4.3 -1.2" class="style8"/><path d="m 619.3 575.3 -8.3 -10.9 0 10.6 -2.9 0 0 -17.2 1.5 0 8.1 10.4 0 -10.4 2.9 0 0 17.4 -1.2 0" class="style8"/><path d="m 623.2 566.4 c 0 -2.4 0.7 -4.5 2 -6.2 1.3 -1.7 3.1 -2.5 5.4 -2.5 2.5 0 4.4 0.8 5.7 2.3 1.3 1.5 2 3.7 2 6.4 -0 2.8 -0.7 5 -2.1 6.6 -1.4 1.6 -3.3 2.4 -5.8 2.4 -2.3 0 -4.1 -0.8 -5.3 -2.4 -1.2 -1.6 -1.8 -3.8 -1.8 -6.6 m 3.2 0 c 0 2 0.3 3.6 1 4.7 0.7 1.1 1.7 1.7 3 1.7 1.5 0 2.7 -0.5 3.5 -1.6 0.8 -1.1 1.2 -2.6 1.2 -4.7 -0 -4 -1.5 -6 -4.5 -6 -1.4 0 -2.4 0.5 -3.1 1.6 -0.7 1.1 -1.1 2.6 -1.1 4.4" class="style8"/><path d="m 647.9 560.6 0 14.5 -3 0 0 -14.5 -5.5 0 0 -2.7 14.2 0 0 2.7 -5.7 0" class="style8"/><path d="m 665.5 560.6 0 4 6 0 0 2.6 -6 0 0 7.9 -3 0 0 -17.2 11.3 0 0 2.7 -8.3 0" class="style8"/><path d="m 675.6 566.4 c 0 -2.4 0.7 -4.5 2 -6.2 1.3 -1.7 3.1 -2.5 5.4 -2.5 2.5 0 4.4 0.8 5.7 2.3 1.3 1.5 2 3.7 2 6.4 -0 2.8 -0.7 5 -2.1 6.6 -1.4 1.6 -3.3 2.4 -5.8 2.4 -2.3 0 -4.1 -0.8 -5.3 -2.4 -1.2 -1.6 -1.8 -3.8 -1.8 -6.6 m 3.2 0 c 0 2 0.3 3.6 1 4.7 0.7 1.1 1.7 1.7 3 1.7 1.5 0 2.7 -0.5 3.5 -1.6 0.8 -1.1 1.2 -2.6 1.2 -4.7 -0 -4 -1.5 -6 -4.5 -6 -1.4 0 -2.4 0.5 -3.1 1.6 -0.7 1.1 -1.1 2.6 -1.1 4.4" class="style8"/><path d="m 693.3 557.9 3 0 0 11.6 c 0 0.9 0.3 1.7 0.8 2.2 0.6 0.6 1.3 0.9 2.3 0.9 1.1 0 2 -0.3 2.6 -0.8 0.6 -0.6 0.9 -1.3 0.9 -2.3 l 0 -11.6 3 0 0 11.8 c -0 1.8 -0.6 3.1 -1.8 4.1 -1.2 1 -2.8 1.5 -4.7 1.5 -2 0 -3.5 -0.5 -4.6 -1.5 -1.1 -1 -1.6 -2.4 -1.6 -4.2 l 0 -11.8" class="style8"/><path d="m 720.9 575.3 -8.3 -10.9 0 10.6 -2.9 0 0 -17.2 1.5 0 8.1 10.4 0 -10.4 2.9 0 0 17.4 -1.2 0" class="style8"/><path d="m 729.4 575.1 -3.8 0 0 -17.2 c 2.4 -0.1 4 -0.1 4.6 -0.1 2.5 0 4.5 0.7 5.9 2.2 1.5 1.5 2.2 3.4 2.2 5.8 -0 6.2 -3 9.3 -8.9 9.3 m -0.8 -14.5 0 11.7 c 0.5 0 1 0.1 1.6 0.1 1.5 0 2.7 -0.6 3.6 -1.7 0.9 -1.1 1.3 -2.7 1.3 -4.7 -0 -3.7 -1.7 -5.5 -5.1 -5.5 -0.3 0 -0.8 0 -1.4 0.1" class="style8"/><path d="m 558.1 611.1 0.7 -1.7 c 0.8 0.5 1.5 0.8 2.3 0.8 1.1 0 1.7 -0.4 1.7 -1.2 0 -0.4 -0.1 -0.7 -0.4 -1.1 -0.3 -0.3 -0.8 -0.7 -1.7 -1.1 -0.8 -0.4 -1.4 -0.8 -1.7 -1 -0.3 -0.3 -0.5 -0.6 -0.7 -1 -0.2 -0.4 -0.2 -0.8 -0.2 -1.2 0 -0.8 0.3 -1.5 0.9 -2.1 0.6 -0.6 1.4 -0.8 2.4 -0.8 1.3 0 2.2 0.2 2.8 0.7 l -0.6 1.7 c -0.7 -0.5 -1.4 -0.7 -2.2 -0.7 -0.4 0 -0.8 0.1 -1 0.4 -0.2 0.2 -0.4 0.5 -0.4 0.9 0 0.6 0.7 1.3 2.1 2 0.7 0.4 1.3 0.7 1.6 1 0.3 0.3 0.6 0.6 0.7 1.1 0.2 0.4 0.3 0.8 0.3 1.3 -0 0.9 -0.4 1.6 -1.1 2.2 -0.7 0.6 -1.6 0.9 -2.8 0.9 -1 0 -1.9 -0.3 -2.8 -0.8" class="style9"/><path d="m 579.9 606 0 5.7 -3.7 0 0 -5.7 -9.9 0 0 -2.2 12 -14 1.7 0 0 13.2 2.2 0 0 3.1 -2.2 0 m -3.7 -9.6 -5.6 6.6 5.6 0 0 -6.6" class="style10"/><path d="m 586.2 602.5 0 2.6 3.6 0 0 1.6 -3.6 0 0 3.3 5 0 0 1.7 -6.9 0 0 -10.9 7 0 0 1.7 -5 0" class="style9"/><path d="m 593 600.1 c 0 -3 0.7 -5.5 2.2 -7.6 1.5 -2.1 3.4 -3.1 5.8 -3.1 5.1 0 7.6 3.7 7.6 11.1 -0 3.5 -0.7 6.2 -2.1 8.3 -1.4 2.1 -3.3 3.1 -5.8 3.1 -2.7 0 -4.6 -1 -5.9 -2.9 -1.3 -1.9 -1.9 -4.9 -1.9 -9 m 4 0.3 c 0 2.9 0.3 5.1 0.9 6.4 0.6 1.4 1.5 2.1 2.8 2.1 1.4 0 2.4 -0.6 3 -1.8 0.6 -1.2 0.9 -3.5 0.9 -6.6 -0 -3 -0.3 -5 -0.9 -6.1 -0.6 -1.1 -1.5 -1.7 -2.8 -1.7 -2.6 0 -3.9 2.6 -3.9 7.8" class="style10"/><path d="m 624.4 606 0 5.7 -3.7 0 0 -5.7 -9.9 0 0 -2.2 12 -14 1.7 0 0 13.2 2.2 0 0 3.1 -2.2 0 m -3.7 -9.6 -5.6 6.6 5.6 0 0 -6.6" class="style10"/><path d="m 465.4 643.3 0 -17.2 3 0 0 14.5 7.8 0 0 2.7 -10.8 0" class="style8"/><path d="m 480.7 625.9 c 0.5 0 0.9 0.2 1.2 0.5 0.3 0.3 0.5 0.7 0.5 1.2 -0 0.5 -0.2 0.9 -0.5 1.2 -0.3 0.3 -0.7 0.5 -1.2 0.5 -0.5 0 -0.9 -0.2 -1.2 -0.5 -0.3 -0.3 -0.5 -0.7 -0.5 -1.2 0 -0.5 0.2 -0.9 0.5 -1.2 0.3 -0.3 0.7 -0.5 1.2 -0.5 m -1.5 17.4 0 -10.1 -1.6 0 0 -2.4 4.6 0 0 12.6 -3 0" class="style8"/><path d="m 484.8 642.5 1 -2.3 c 0.9 0.7 1.9 1 3 1 1.1 0 1.7 -0.4 1.7 -1.2 0 -0.5 -0.2 -0.9 -0.5 -1.2 -0.3 -0.3 -1 -0.7 -2 -1.1 -2.2 -0.9 -3.2 -2.2 -3.2 -3.8 0 -1.1 0.4 -1.9 1.2 -2.5 0.8 -0.6 1.9 -0.9 3.2 -0.9 1.3 0 2.5 0.3 3.7 0.9 l -0.8 2.3 c -0.6 -0.5 -1.5 -0.8 -2.7 -0.8 -1 0 -1.5 0.4 -1.5 1.2 0 0.3 0.2 0.6 0.5 0.9 0.3 0.3 1.1 0.6 2.2 1 1.1 0.4 1.9 1 2.4 1.6 0.5 0.6 0.7 1.4 0.7 2.2 -0 1.2 -0.4 2.1 -1.3 2.8 -0.9 0.7 -2 1 -3.5 1 -0.8 0 -1.5 -0.1 -2 -0.2 -0.5 -0.1 -1.1 -0.4 -1.9 -0.8" class="style8"/><path d="m 503 642 c -0.3 0.4 -0.7 0.8 -1.4 1.1 -0.7 0.3 -1.3 0.4 -2.1 0.4 -1.4 0 -2.4 -0.3 -3.2 -1 -0.8 -0.7 -1.2 -1.6 -1.2 -2.9 0 -1.5 0.5 -2.6 1.6 -3.4 1.1 -0.8 2.6 -1.2 4.7 -1.2 0.3 0 0.8 0.1 1.2 0.2 0 -1.5 -0.9 -2.2 -2.8 -2.2 -1.1 0 -2 0.2 -2.8 0.6 l -0.6 -2.3 c 1 -0.5 2.2 -0.7 3.6 -0.7 1.9 0 3.3 0.4 4.2 1.3 0.9 0.9 1.3 2.5 1.3 4.9 l 0 2.7 c -0 1.7 0.3 2.7 1 3.2 -0.2 0.4 -0.5 0.7 -0.8 0.8 -0.3 0.1 -0.6 0.2 -1 0.2 -0.4 0 -0.8 -0.2 -1.1 -0.5 -0.3 -0.3 -0.6 -0.7 -0.7 -1 m -0.3 -4.7 c -0.5 -0.1 -0.9 -0.2 -1.1 -0.2 -2.3 0 -3.5 0.8 -3.5 2.3 0 1.1 0.7 1.7 2 1.7 1.8 0 2.6 -0.9 2.6 -2.6 l 0 -1.2" class="style8"/><path d="m 522.8 628.8 0 14.5 -3 0 0 -14.5 -5.5 0 0 -2.7 14.2 0 0 2.7 -5.7 0" class="style8"/><path d="m 538.4 643.3 0 -7.7 c -0 -0.8 -0.2 -1.4 -0.7 -1.9 -0.5 -0.5 -1.1 -0.7 -1.9 -0.7 -0.5 0 -1 0.1 -1.5 0.4 -0.5 0.3 -0.8 0.6 -1.1 0.9 l 0 9 -3 0 0 -17.2 3 -0.7 0 6.2 c 0.8 -0.7 1.8 -1 3.1 -1 1.6 0 2.8 0.4 3.7 1.3 0.9 0.9 1.3 2.1 1.3 3.7 l 0 7.7 -2.9 0" class="style8"/><path d="m 555.7 637.9 -9 0 c 0.1 1 0.4 1.8 1 2.3 0.6 0.6 1.5 0.8 2.6 0.8 1.3 0 2.4 -0.3 3 -1 l 1.1 2.2 c -1 0.8 -2.6 1.3 -4.6 1.3 -1.9 0 -3.4 -0.6 -4.5 -1.7 -1.1 -1.1 -1.7 -2.7 -1.7 -4.7 0 -2 0.6 -3.6 1.8 -4.8 1.2 -1.2 2.7 -1.8 4.4 -1.8 1.8 0 3.3 0.5 4.4 1.6 1.1 1.1 1.7 2.5 1.7 4.1 -0 0.4 -0.1 0.9 -0.2 1.6 m -8.9 -2.2 6.2 0 c -0.2 -1.8 -1.2 -2.8 -3 -2.8 -1.7 0 -2.7 0.9 -3.1 2.8" class="style8"/><path d="m 571 643.3 -5.2 0 0 -17.2 c 2.3 -0.1 3.9 -0.2 4.9 -0.2 1.8 0 3.2 0.4 4.2 1.1 1 0.8 1.5 1.8 1.5 3.3 -0 1.4 -0.7 2.4 -2.2 3.2 2.1 0.7 3.2 2.3 3.2 4.6 -0 1.6 -0.6 2.8 -1.8 3.7 -1.2 0.9 -2.7 1.4 -4.6 1.4 m -2.2 -14.7 0 4.1 c 0.5 0 1 0 1.5 0 2 0 3 -0.7 3 -2.2 -0 -1.3 -0.9 -2 -2.7 -2 -0.5 0 -1.1 0 -1.7 0.1 m 0 6.5 0 5.7 c 0.6 0.1 1.1 0.1 1.5 0.1 1.4 0 2.3 -0.2 3 -0.7 0.6 -0.5 0.9 -1.2 0.9 -2.3 -0 -1 -0.3 -1.7 -0.9 -2.1 -0.6 -0.4 -1.6 -0.7 -3 -0.7 -0.3 0 -0.8 0 -1.5 0" class="style8"/><path d="m 591 637.9 -9 0 c 0.1 1 0.4 1.8 1 2.3 0.6 0.6 1.5 0.8 2.6 0.8 1.3 0 2.4 -0.3 3 -1 l 1.1 2.2 c -1 0.8 -2.6 1.3 -4.6 1.3 -1.9 0 -3.4 -0.6 -4.5 -1.7 -1.1 -1.1 -1.7 -2.7 -1.7 -4.7 0 -2 0.6 -3.6 1.8 -4.8 1.2 -1.2 2.7 -1.8 4.4 -1.8 1.8 0 3.3 0.5 4.4 1.6 1.1 1.1 1.7 2.5 1.7 4.1 -0 0.4 -0.1 0.9 -0.2 1.6 m -8.9 -2.2 6.2 0 c -0.2 -1.8 -1.2 -2.8 -3 -2.8 -1.7 0 -2.7 0.9 -3.1 2.8" class="style8"/><path d="m 600.6 642 c -0.3 0.4 -0.7 0.8 -1.4 1.1 -0.7 0.3 -1.3 0.4 -2.1 0.4 -1.4 0 -2.4 -0.3 -3.2 -1 -0.8 -0.7 -1.2 -1.6 -1.2 -2.9 0 -1.5 0.5 -2.6 1.6 -3.4 1.1 -0.8 2.6 -1.2 4.7 -1.2 0.3 0 0.7 0.1 1.2 0.2 -0 -1.5 -0.9 -2.2 -2.8 -2.2 -1.1 0 -2 0.2 -2.8 0.6 l -0.6 -2.3 c 1 -0.5 2.2 -0.7 3.6 -0.7 1.9 0 3.3 0.4 4.2 1.3 0.9 0.9 1.3 2.5 1.3 4.9 l 0 2.7 c -0 1.7 0.3 2.7 1 3.2 -0.2 0.4 -0.5 0.7 -0.8 0.8 -0.3 0.1 -0.6 0.2 -1 0.2 -0.4 0 -0.8 -0.2 -1.1 -0.5 -0.3 -0.3 -0.6 -0.7 -0.7 -1 m -0.3 -4.7 c -0.5 -0.1 -0.9 -0.2 -1.1 -0.2 -2.3 0 -3.5 0.8 -3.5 2.3 -0 1.1 0.7 1.7 2 1.7 1.8 0 2.6 -0.9 2.6 -2.6 l 0 -1.2" class="style8"/><path d="m 614.5 643.3 0 -1.1 c -0.4 0.4 -1 0.7 -1.7 0.9 -0.7 0.2 -1.4 0.4 -2 0.4 -2.9 0 -4.4 -1.5 -4.4 -4.6 l 0 -8.1 2.9 0 0 7.9 c 0 1.6 0.7 2.4 2.2 2.4 0.7 0 1.3 -0.2 1.9 -0.5 0.6 -0.3 0.9 -0.7 1.1 -1.2 l 0 -8.6 2.9 0 0 12.6 -2.9 0" class="style8"/><path d="m 621.1 633.1 -1.5 0 0 -2.4 1.5 0 0 -2.6 2.9 -1.1 0 3.6 3.4 0 0 2.4 -3.4 0 0 5.5 c 0 0.9 0.1 1.5 0.4 1.9 0.3 0.4 0.8 0.6 1.5 0.6 0.7 0 1.4 -0.2 2 -0.6 l 0 2.7 c -0.7 0.2 -1.6 0.4 -2.9 0.4 -1.3 0 -2.2 -0.4 -2.9 -1.1 -0.7 -0.7 -1 -1.7 -1 -3 l 0 -6.4" class="style8"/><path d="m 635.7 645.3 c -0.3 0.8 -1 1.5 -2 2.1 -1 0.6 -2.2 0.8 -3.6 0.8 l 0 -2.6 c 2.3 0 3.4 -0.6 3.4 -1.7 0 -0.8 -0.3 -1.9 -0.9 -3.4 l -3.9 -9.7 3 0 3.4 8.7 3.1 -8.7 3 0 -5.5 14.6" class="style8"/><path d="m 666.6 646.8 c -0.5 0.1 -1 0.1 -1.6 0.1 -1.5 0 -2.8 -0.3 -4 -0.9 -1.2 -0.6 -2.2 -1.4 -2.8 -2.5 -0.3 0.1 -0.8 0.1 -1.4 0.1 -2.3 0 -4 -0.8 -5.3 -2.5 -1.3 -1.7 -1.9 -3.9 -1.9 -6.5 0 -2.5 0.7 -4.6 2 -6.3 1.3 -1.7 3.1 -2.5 5.3 -2.5 2.5 0 4.4 0.8 5.7 2.3 1.3 1.5 2 3.7 2 6.5 -0 4.1 -1.3 6.8 -4 8.2 0.9 0.9 2.3 1.4 4.2 1.4 0.7 0 1.4 -0.1 1.9 -0.2 l 0 2.8 m -13.9 -12.2 c 0 1.8 0.4 3.3 1.1 4.5 0.7 1.2 1.7 1.8 3 1.8 1.5 0 2.6 -0.6 3.4 -1.7 0.8 -1.1 1.2 -2.7 1.2 -4.7 -0 -4.1 -1.5 -6.1 -4.6 -6.1 -1.3 0 -2.4 0.5 -3.1 1.6 -0.7 1.1 -1 2.6 -1 4.5" class="style8"/><path d="m 675.2 643.3 0 -1.1 c -0.4 0.4 -1 0.7 -1.7 0.9 -0.7 0.2 -1.4 0.4 -2 0.4 -2.9 0 -4.4 -1.5 -4.4 -4.6 l 0 -8.1 2.9 0 0 7.9 c 0 1.6 0.7 2.4 2.2 2.4 0.7 0 1.3 -0.2 1.9 -0.5 0.6 -0.3 0.9 -0.7 1.1 -1.2 l 0 -8.6 2.9 0 0 12.6 -2.9 0" class="style8"/><path d="m 692.6 637.9 -9 0 c 0.1 1 0.4 1.8 1 2.3 0.6 0.6 1.5 0.8 2.6 0.8 1.3 0 2.4 -0.3 3 -1 l 1.1 2.2 c -1 0.8 -2.6 1.3 -4.6 1.3 -1.9 0 -3.4 -0.6 -4.5 -1.7 -1.1 -1.1 -1.7 -2.7 -1.7 -4.7 0 -2 0.6 -3.6 1.8 -4.8 1.2 -1.2 2.7 -1.8 4.4 -1.8 1.8 0 3.3 0.5 4.4 1.6 1.1 1.1 1.7 2.5 1.7 4.1 -0 0.4 -0.1 0.9 -0.2 1.6 m -8.9 -2.2 6.2 0 c -0.2 -1.8 -1.2 -2.8 -3 -2.8 -1.7 0 -2.7 0.9 -3.1 2.8" class="style8"/><path d="m 706.3 637.9 -9 0 c 0.1 1 0.4 1.8 1 2.3 0.6 0.6 1.5 0.8 2.6 0.8 1.3 0 2.4 -0.3 3 -1 l 1.1 2.2 c -1 0.8 -2.6 1.3 -4.6 1.3 -1.9 0 -3.4 -0.6 -4.5 -1.7 -1.1 -1.1 -1.7 -2.7 -1.7 -4.7 0 -2 0.6 -3.6 1.8 -4.8 1.2 -1.2 2.7 -1.8 4.4 -1.8 1.8 0 3.3 0.5 4.4 1.6 1.1 1.1 1.7 2.5 1.7 4.1 -0 0.4 -0.1 0.9 -0.2 1.6 m -8.9 -2.2 6.2 0 c -0.2 -1.8 -1.2 -2.8 -3 -2.8 -1.7 0 -2.7 0.9 -3.1 2.8" class="style8"/><path d="m 717 643.3 0 -7.3 c -0 -1.1 -0.2 -1.9 -0.6 -2.3 -0.4 -0.5 -1.1 -0.7 -2 -0.7 -0.4 0 -0.9 0.1 -1.4 0.4 -0.5 0.2 -0.9 0.5 -1.1 0.9 l 0 9.1 -2.9 0 0 -12.6 2.1 0 0.5 1.2 c 0.8 -0.9 2 -1.4 3.5 -1.4 1.5 0 2.7 0.4 3.5 1.3 0.9 0.9 1.3 2.1 1.3 3.7 l 0 7.7 -2.9 0" class="style8"/></g></svg>